<?xml version="1.0" encoding="UTF-8"?>
<svg id="Keine" xmlns="http://www.w3.org/2000/svg" viewBox="0 0 1200 178.05">
  <defs>
    <style>
      .cls-1 {
        fill: #5999ff;
      }

      .cls-2 {
        fill-rule: evenodd;
      }

      .cls-2, .cls-3, .cls-4 {
        fill: #002673;
      }

      .cls-3 {
        font-family: Quicksand-Regular, Quicksand;
        font-size: 118.58px;
        font-variation-settings: 'wght' 400;
        letter-spacing: .03em;
      }
    </style>
  </defs>
  <g id="MTEXT">
    <text class="cls-3" transform="translate(294.92 144.84)"><tspan x="0" y="0">adaptivetesting</tspan></text>
  </g>
  <g id="HATCH">
    <rect class="cls-4" x="75.17" y="62.46" width="29.71" height="29.71" rx="3.46" ry="3.46"/>
  </g>
  <g id="HATCH-2" data-name="HATCH">
    <rect class="cls-4" x="118.11" y="62.46" width="29.71" height="29.71" rx="3.46" ry="3.46"/>
  </g>
  <g id="HATCH-3" data-name="HATCH">
    <rect class="cls-1" x="161.05" y="62.46" width="29.71" height="29.71" rx="3.46" ry="3.46"/>
  </g>
  <g id="HATCH-4" data-name="HATCH">
    <rect class="cls-4" x="75.17" y="105.4" width="29.71" height="29.71" rx="3.46" ry="3.46"/>
  </g>
  <g id="HATCH-5" data-name="HATCH">
    <rect class="cls-4" x="118.11" y="105.4" width="29.71" height="29.71" rx="3.46" ry="3.46"/>
  </g>
  <g id="HATCH-6" data-name="HATCH">
    <rect class="cls-4" x="161.05" y="105.4" width="29.71" height="29.71" rx="3.46" ry="3.46"/>
  </g>
  <g id="HATCH-7" data-name="HATCH">
    <rect class="cls-4" x="75.17" y="148.34" width="29.71" height="29.71" rx="3.46" ry="3.46"/>
  </g>
  <g id="HATCH-8" data-name="HATCH">
    <rect class="cls-4" x="118.11" y="148.34" width="29.71" height="29.71" rx="3.46" ry="3.46"/>
  </g>
  <g id="HATCH-9" data-name="HATCH">
    <rect class="cls-4" x="161.05" y="148.34" width="29.71" height="29.71" rx="3.46" ry="3.46"/>
  </g>
  <g id="HATCH-10" data-name="HATCH">
    <polygon class="cls-2" points="240.79 121.54 242.94 128.36 244.94 135.25 246.8 142.21 248.5 149.24 250.06 156.34 251.47 163.5 252.73 170.74 253.84 178.05 266.66 178.05 265.28 170.09 263.77 162.25 262.15 154.53 260.4 146.94 258.52 139.47 256.53 132.13 254.4 124.91 252.16 117.81 247.56 104.78 242.55 92.44 237.12 80.79 231.28 69.83 225.02 59.57 218.34 50 211.25 41.12 203.74 32.93 195.55 25.21 187.17 18.53 178.6 12.86 169.85 8.23 160.9 4.63 151.78 2.06 142.46 .51 132.96 0 123.46 .51 114.15 2.06 105.02 4.63 96.08 8.23 87.33 12.86 78.76 18.53 70.38 25.21 62.18 32.93 54.67 41.12 47.58 50 40.91 59.57 34.65 69.83 28.8 80.79 23.38 92.44 18.36 104.78 13.77 117.81 11.53 124.91 9.44 132.13 7.5 139.47 5.71 146.94 4.06 154.53 2.56 162.25 1.21 170.09 0 178.05 12.08 178.05 13.2 170.74 14.46 163.5 15.87 156.34 17.42 149.24 19.13 142.21 20.98 135.25 22.99 128.36 25.14 121.54 29.5 109.16 34.24 97.46 39.36 86.42 44.87 76.06 50.76 66.37 57.03 57.35 63.68 49 70.71 41.33 78 34.44 85.43 28.48 93.01 23.43 100.72 19.31 108.57 16.09 116.56 13.8 124.69 12.42 132.96 11.97 141.23 12.42 149.36 13.8 157.36 16.09 165.21 19.31 172.92 23.43 180.49 28.48 187.92 34.44 195.22 41.33 202.25 49 208.9 57.35 215.17 66.37 221.06 76.06 226.56 86.42 231.69 97.46 236.43 109.16 240.79 121.54"/>
  </g>
</svg>